<?xml version="1.0" encoding="UTF-8"?>
<svg version="1.1" xmlns="http://www.w3.org/2000/svg" width="200" height="200">
<path d="M0 0 C1.01375702 -0.00686325 2.02751404 -0.0137265 3.07199097 -0.02079773 C6.41475529 -0.0390617 9.75705011 -0.03522869 13.09985352 -0.02954102 C15.42863619 -0.03410297 17.75741753 -0.03940858 20.0861969 -0.04542542 C24.96425856 -0.05435573 29.84215649 -0.05193414 34.72021484 -0.04199219 C40.96579415 -0.03050237 47.21080809 -0.05071519 53.45631313 -0.07990932 C58.26479166 -0.09827105 63.07313469 -0.09797887 67.88163948 -0.0922718 C70.18409073 -0.09211859 72.48655117 -0.098163 74.78896904 -0.11056328 C78.01071333 -0.12547047 81.23141299 -0.11479726 84.453125 -0.09765625 C85.40035934 -0.10732422 86.34759369 -0.11699219 87.3235321 -0.12695312 C94.28126266 -0.04958955 98.68089504 1.40799542 103.81079102 6.34936523 C104.69831055 7.42831055 104.69831055 7.42831055 105.60375977 8.52905273 C108.69181843 12.13896104 111.8831184 15.50978216 115.29907227 18.81420898 C116.10755615 19.59973145 116.91604004 20.38525391 117.74902344 21.19458008 C119.38020071 22.77131519 121.0207902 24.33838083 122.67138672 25.89477539 C123.43153076 26.6338916 124.1916748 27.37300781 124.97485352 28.13452148 C125.66119873 28.78831787 126.34754395 29.44211426 127.0546875 30.11572266 C131.45082379 35.908635 131.08836391 42.89729695 131.08178711 49.84985352 C131.08850433 50.87672272 131.09522156 51.90359192 131.10214233 52.96157837 C131.12107264 56.34089042 131.12504333 59.72000353 131.12719727 63.09936523 C131.13362607 65.45392945 131.14035449 67.80849287 131.14736938 70.16305542 C131.15932785 75.09057469 131.16305141 80.01802389 131.16186523 84.94555664 C131.16166154 91.26189883 131.18902257 97.57779365 131.22340965 103.89402962 C131.24562894 108.75302195 131.24970438 113.6119055 131.24864578 118.47094345 C131.25100697 120.80017522 131.25985946 123.12940975 131.27531052 125.45859146 C131.29487954 128.71172952 131.28916884 131.96388759 131.27709961 135.21704102 C131.28833862 136.17924561 131.29957764 137.1414502 131.31115723 138.1328125 C131.27089713 142.39762811 131.17516465 144.77172 128.92202759 148.48287964 C126.42462144 150.73462638 124.84416902 151.23850008 121.54125977 151.71655273 C120.64922852 151.85706055 119.75719727 151.99756836 118.83813477 152.14233398 C118.16266602 152.22870117 117.48719727 152.31506836 116.79125977 152.40405273 C115.49066912 155.13590869 115.49066912 155.13590869 114.79125977 158.40405273 C115.74219273 160.09919411 116.74233738 161.76773381 117.79125977 163.40405273 C117.49160458 167.66194393 116.03661582 169.70373963 113.04125977 172.65405273 C112.36579102 173.33983398 111.69032227 174.02561523 110.99438477 174.73217773 C108.51747304 176.61181996 106.87828746 177.18355076 103.79125977 177.40405273 C103.17250977 176.88842773 102.55375977 176.37280273 101.91625977 175.84155273 C99.72353353 174.03272704 99.72353353 174.03272704 96.22875977 174.71655273 C92.51297776 176.5406639 92.24196821 176.83554833 90.91625977 180.46655273 C90.61075195 181.53583008 90.61075195 181.53583008 90.29907227 182.62670898 C89.79125977 184.40405273 89.79125977 184.40405273 88.79125977 185.40405273 C87.35241468 185.50612555 85.90860753 185.53923573 84.46615601 185.54449463 C83.53251221 185.55020477 82.59886841 185.55591492 81.63693237 185.5617981 C80.08789719 185.56347488 80.08789719 185.56347488 78.50756836 185.56518555 C77.42626648 185.57015045 76.3449646 185.57511536 75.230896 185.58023071 C71.63382339 185.59490095 68.03679494 185.60166367 64.43969727 185.60717773 C61.94682819 185.61292677 59.45395913 185.61868453 56.96109009 185.62445068 C52.39406605 185.63362836 47.82705473 185.63992195 43.26002252 185.64294744 C37.21193456 185.64697602 31.16400217 185.6592167 25.1159668 185.68530273 C18.63090121 185.71284414 12.14596916 185.72569623 5.66084671 185.72762299 C3.18813594 185.73064962 0.71542603 185.73867849 -1.75725174 185.75180817 C-5.22121828 185.76888285 -8.68468996 185.7669842 -12.14868164 185.76049805 C-13.16922638 185.76971283 -14.18977112 185.77892761 -15.24124146 185.78842163 C-21.0036339 185.75466095 -25.1908199 185.34093969 -30.20874023 182.40405273 C-33.81343842 178.68867891 -34.7119647 176.33630902 -34.74790955 171.19326782 C-34.77528198 169.31756859 -34.77528198 169.31756859 -34.8032074 167.40397644 C-34.80327859 166.02590939 -34.80294459 164.64784227 -34.80224609 163.26977539 C-34.81589826 161.81241741 -34.83125136 160.35507452 -34.84817505 158.89775085 C-34.88884639 154.94519755 -34.90459423 150.99290382 -34.91503978 147.04016924 C-34.92935173 142.89936268 -34.96377355 138.75871639 -34.99525452 134.61801147 C-35.04494414 127.66260117 -35.0785484 120.70725245 -35.10253906 113.75170898 C-35.13043349 105.71889922 -35.18321734 97.68654834 -35.24952215 89.65397036 C-35.31283018 81.91891103 -35.35886626 74.18384153 -35.39694405 66.44861984 C-35.41340443 63.16085899 -35.43579821 59.87321837 -35.46299553 56.58552933 C-35.49424504 52.70970442 -35.51030307 48.83410001 -35.51483536 44.95815468 C-35.51888172 43.53879031 -35.52804715 42.1194295 -35.54281425 40.70013618 C-35.69354704 25.55901469 -35.69354704 25.55901469 -30.58374023 19.46655273 C-26.88100768 17.81006712 -23.20234352 18.17365255 -19.20874023 18.40405273 C-19.24354492 17.74018555 -19.27834961 17.07631836 -19.31420898 16.39233398 C-19.59809202 7.1323397 -19.59809202 7.1323397 -16.20874023 3.40405273 C-10.85129775 -0.06145312 -6.16483301 -0.02923535 0 0 Z M-10.95145035 8.55024433 C-12.76161656 11.21924006 -12.58345125 13.23549418 -12.58296204 16.44593811 C-12.58997635 17.70929489 -12.59699066 18.97265167 -12.60421753 20.27429199 C-12.59678962 21.67700354 -12.58905847 23.0797135 -12.58105469 24.48242188 C-12.58348224 25.95743568 -12.58720121 27.43244784 -12.59211731 28.90745544 C-12.60153419 32.91563634 -12.59209474 36.9235734 -12.57878518 40.93173528 C-12.5674836 45.12151843 -12.57157713 49.31128936 -12.5735321 53.50108337 C-12.57441539 60.53657016 -12.56332662 67.57196066 -12.54492188 74.60742188 C-12.52374548 82.74916201 -12.5202459 90.89076112 -12.52648383 99.03252321 C-12.53217192 106.85630541 -12.52653894 114.68003778 -12.51531029 122.50381279 C-12.51065775 125.83751786 -12.50979326 129.17119254 -12.51189613 132.50489998 C-12.51377524 136.42749268 -12.50570444 140.34994117 -12.48983574 144.27250099 C-12.48558153 145.71489617 -12.48474993 147.15730596 -12.48752594 148.59970474 C-12.49073187 150.56286014 -12.48047034 152.526024 -12.46943665 154.489151 C-12.46738378 155.58956254 -12.46533091 156.68997408 -12.46321583 157.82373142 C-12.46804304 160.5676123 -12.46804304 160.5676123 -10.20874023 162.40405273 C-7.76329133 162.71763479 -7.76329133 162.71763479 -4.88867188 162.67871094 C-3.7773439 162.68824295 -2.66601593 162.69777496 -1.52101135 162.70759583 C-0.31581345 162.70668442 0.88938446 162.70577301 2.13110352 162.70483398 C3.36413712 162.70911911 4.59717072 162.71340424 5.86756897 162.71781921 C9.14950687 162.72504698 12.43126234 162.72192789 15.7131958 162.71624756 C17.72525283 162.7165522 19.73701541 162.72658721 21.74902344 162.74023438 C25.60569171 162.76466318 29.46186771 162.76889202 33.31860352 162.76733398 C34.52177719 162.77654373 35.72495087 162.78575348 36.96458435 162.79524231 C38.07906448 162.78901352 39.19354462 162.78278473 40.34179688 162.77636719 C41.32393661 162.77699661 42.30607635 162.77762604 43.31797791 162.77827454 C45.82900968 162.59013405 45.82900968 162.59013405 47.6474762 161.07218933 C49.10828818 159.31767027 49.10828818 159.31767027 48.54125977 156.34155273 C47.92503752 153.49490253 47.92503752 153.49490253 46.79125977 151.40405273 C44.90862096 150.50061589 44.90862096 150.50061589 42.72875977 149.77905273 C41.42938477 149.32530273 40.13000977 148.87155273 38.79125977 148.40405273 C38.79125977 143.45405273 38.79125977 138.50405273 38.79125977 133.40405273 C40.07000977 133.01217773 41.34875977 132.62030273 42.66625977 132.21655273 C46.12460362 130.91914898 46.12460362 130.91914898 48.35375977 127.96655273 C49.07759081 123.72697088 48.16718979 121.96794778 45.79125977 118.40405273 C46.10696906 115.03648696 47.41653858 113.67552518 49.79125977 111.40405273 C49.79125977 110.74405273 49.79125977 110.08405273 49.79125977 109.40405273 C50.43063477 109.09467773 51.07000977 108.78530273 51.72875977 108.46655273 C53.72736798 107.56953643 53.72736798 107.56953643 54.79125977 106.40405273 C58.51350576 106.11019121 59.5691222 106.25596102 62.79125977 108.40405273 C65.74943161 108.10219846 68.12563635 107.73686444 70.79125977 106.40405273 C71.40193121 104.54661066 71.40193121 104.54661066 71.79125977 102.40405273 C72.22875977 100.21655273 72.22875977 100.21655273 72.79125977 98.40405273 C75.85659141 96.87138691 79.05880248 97.30128803 82.41625977 97.34155273 C83.47586914 97.34832031 83.47586914 97.34832031 84.55688477 97.35522461 C86.30171252 97.36701399 88.04649676 97.38494949 89.79125977 97.40405273 C89.85442383 98.01893555 89.91758789 98.63381836 89.98266602 99.26733398 C90.60847583 104.01832788 90.60847583 104.01832788 93.30688477 107.77514648 C95.34044652 108.86317374 95.34044652 108.86317374 98.79125977 109.40405273 C101.38070723 108.06705238 101.38070723 108.06705238 103.79125977 106.40405273 C107.32519354 106.17357879 109.07336116 106.79135115 111.76391602 109.08764648 C115.41940871 112.93209109 115.41940871 112.93209109 116.79125977 115.40405273 C116.54102076 118.9180473 115.77675403 120.42581134 113.79125977 123.40405273 C113.99648793 126.14042821 114.43488953 127.87887554 115.97875977 130.15405273 C118.45540404 131.86208327 120.84776497 131.97388029 123.79125977 132.40405273 C123.81438143 120.16524944 123.83217395 107.9264513 123.84307194 95.68763065 C123.84830115 90.00528762 123.8553995 84.32295947 123.86669922 78.640625 C123.87752673 73.16176138 123.88353631 67.68291211 123.88613701 62.20403862 C123.88799151 60.10875662 123.89161258 58.01347546 123.89698982 55.91819954 C123.90419845 52.9942769 123.90525078 50.0704144 123.90478516 47.14648438 C123.90838043 46.27111023 123.91197571 45.39573608 123.91567993 44.49383545 C124.29024607 40.63882564 124.29024607 40.63882564 122.79125977 37.40405273 C121.36187582 37.29563601 119.9277343 37.24831531 118.49438477 37.22827148 C117.61782227 37.20442383 116.74125977 37.18057617 115.83813477 37.15600586 C113.98940319 37.11340241 112.14037723 37.08195526 110.29125977 37.06225586 C105.9789516 36.92670816 103.440609 36.80865993 99.71313477 34.48608398 C96.98150488 31.52681828 96.66134803 29.86397041 96.54516602 25.93920898 C96.51229492 25.0568457 96.47942383 24.17448242 96.44555664 23.26538086 C96.38449078 21.40352165 96.32718253 19.5415353 96.27368164 17.67944336 C96.23952148 16.79579102 96.20536133 15.91213867 96.17016602 15.00170898 C96.14510986 14.1922583 96.12005371 13.38280762 96.09423828 12.54882812 C95.90745869 10.1094149 95.90745869 10.1094149 93.79125977 7.40405273 C91.88604041 6.95073166 91.88604041 6.95073166 89.66065979 7.02310181 C88.79558807 7.01464233 87.93051636 7.00618286 87.03923035 6.99746704 C86.08800797 7.00353973 85.13678558 7.00961243 84.15673828 7.01586914 C82.65660187 7.0079837 82.65660187 7.0079837 81.12615967 6.99993896 C77.80733805 6.98669309 74.48899285 6.99549407 71.17016602 7.00561523 C68.87092496 7.00359566 66.57168453 7.00068521 64.27244568 6.99691772 C59.44784461 6.99248801 54.6234099 6.99894573 49.79882812 7.01293945 C43.60662608 7.03002195 37.41481436 7.02019992 31.22262669 7.00222206 C26.47264147 6.99139358 21.72274913 6.99482646 16.97276115 7.00260544 C14.68934013 7.00461053 12.40591074 7.0021374 10.12249947 6.99516678 C6.93316366 6.98756889 3.74446407 6.99913403 0.55517578 7.01586914 C-0.86862144 7.0067601 -0.86862144 7.0067601 -2.32118225 6.99746704 C-3.18907379 7.00592651 -4.05696533 7.01438599 -4.95115662 7.02310181 C-5.70535102 7.02423288 -6.45954542 7.02536396 -7.2365942 7.02652931 C-9.27057893 7.28551691 -9.27057893 7.28551691 -10.95145035 8.55024433 Z M101.79125977 15.40405273 C101.71023916 17.50758768 101.65206069 19.61201225 101.60375977 21.71655273 C101.56895508 22.88831055 101.53415039 24.06006836 101.49829102 25.26733398 C101.55870206 28.31917731 101.55870206 28.31917731 102.91625977 30.31030273 C105.64790508 31.9037625 107.84642838 31.69259568 110.97875977 31.59155273 C112.6087793 31.55094727 112.6087793 31.55094727 114.27172852 31.50952148 C115.10317383 31.4747168 115.93461914 31.43991211 116.79125977 31.40405273 C115.12956503 27.09827769 111.9604567 24.31393418 108.72875977 21.15405273 C107.89634766 20.32260742 107.89634766 20.32260742 107.04711914 19.47436523 C104.7865468 16.68660955 104.7865468 16.68660955 101.79125977 15.40405273 Z M-26.48991489 26.03162384 C-28.6578093 29.0238856 -28.70922016 30.6868561 -28.70994568 34.36291504 C-28.71977982 35.58268539 -28.72961395 36.80245575 -28.73974609 38.05918884 C-28.73037442 39.40787023 -28.72059512 40.75654883 -28.71044922 42.10522461 C-28.71423291 43.52788324 -28.71973337 44.9505382 -28.7268219 46.3731842 C-28.74078755 50.23481957 -28.72959928 54.09600995 -28.71311069 57.95762062 C-28.69926342 61.99832131 -28.70571989 66.03899607 -28.70924377 70.07971191 C-28.71194616 76.86547011 -28.69846795 83.65105146 -28.67529297 90.43676758 C-28.64868297 98.28259038 -28.64693598 106.12811747 -28.65868133 113.97396994 C-28.66945971 121.52065407 -28.6632716 129.06723122 -28.64912605 136.61390686 C-28.64336674 139.82595854 -28.64344849 143.03793191 -28.64819145 146.24998474 C-28.65296302 150.03231374 -28.64285243 153.81431884 -28.6212368 157.59658623 C-28.61567116 158.98492274 -28.61520163 160.3732904 -28.62018967 161.7616291 C-28.62614285 163.65615676 -28.61180357 165.55071588 -28.59642029 167.44519043 C-28.59399039 168.50558784 -28.5915605 169.56598526 -28.58905697 170.65851593 C-28.15390884 173.79988493 -27.41893365 175.15824535 -25.20874023 177.40405273 C-21.24565969 178.72507958 -17.46168999 178.53486993 -13.33105469 178.51757812 C-12.42353455 178.51772415 -11.5160144 178.51787018 -10.58099365 178.51802063 C-7.57797871 178.51732334 -4.57502561 178.5095395 -1.57202148 178.50170898 C0.50877346 178.49984415 2.58956884 178.49842056 4.67036438 178.49742126 C10.14976206 178.49360122 15.62913329 178.48377528 21.10852051 178.47271729 C26.69872683 178.46249216 32.28893742 178.45792128 37.87915039 178.45288086 C48.84986515 178.44215258 59.82056026 178.42508228 70.79125977 178.40405273 C70.10678937 175.3703554 70.10678937 175.3703554 68.04125977 174.15405273 C63.66348419 172.69479421 59.85988839 174.66035475 55.79125977 176.40405273 C55.37051682 175.90798523 54.94977386 175.41191772 54.51628113 174.90081787 C50.44692345 170.68772859 47.45140867 168.91681059 41.54638672 168.56518555 C39.12415031 168.54478195 36.70141769 168.56071364 34.27954102 168.60717773 C32.31416551 168.59926912 30.34878994 168.59134622 28.38341808 168.58257675 C25.64974001 168.57887192 22.9167374 168.60675904 20.18322754 168.63470459 C15.38688018 168.6793316 10.59050413 168.68480195 5.79399109 168.67376709 C3.24529683 168.6710874 0.69652018 168.68484994 -1.85197449 168.71685791 C-3.00699966 168.71965759 -4.16202484 168.72245728 -5.35205078 168.7253418 C-6.36494675 168.73535217 -7.37784271 168.74536255 -8.4214325 168.75567627 C-11.74496096 168.33640759 -13.55672872 167.43497516 -16.20874023 165.40405273 C-18.28829194 162.1601491 -18.46627568 159.53260232 -18.48721313 155.72198486 C-18.49837662 154.5637471 -18.5095401 153.40550934 -18.52104187 152.21217346 C-18.52320206 150.94550339 -18.52536224 149.67883331 -18.52758789 148.3737793 C-18.53688829 147.02344666 -18.54705713 145.67311977 -18.55802917 144.32279968 C-18.58533082 140.65994241 -18.60047903 136.99712359 -18.6134572 133.33419132 C-18.62908704 129.50511831 -18.65587773 125.67612385 -18.68148804 121.84710693 C-18.72827845 114.59762118 -18.76502127 107.34812065 -18.79816091 100.09856105 C-18.83638045 91.84464695 -18.88579105 83.59081174 -18.93614507 75.33696413 C-19.03946882 58.35938406 -19.12872777 41.38175834 -19.20874023 24.40405273 C-22.42981313 24.04615575 -23.80946482 24.11917795 -26.48991489 26.03162384 Z M77.79125977 102.40405273 C76.22853788 106.79659047 76.22853788 106.79659047 75.79125977 111.40405273 C65.93138715 115.012895 65.93138715 115.012895 61.79125977 114.40405273 C60.80125977 113.74405273 59.81125977 113.08405273 58.79125977 112.40405273 C56.73411144 112.41788138 56.73411144 112.41788138 54.79125977 113.40405273 C53.03703205 115.3807588 53.03703205 115.3807588 51.79125977 117.40405273 C52.56469727 118.48686523 52.56469727 118.48686523 53.35375977 119.59155273 C54.79125977 122.40405273 54.79125977 122.40405273 54.60375977 124.90405273 C54.04150953 126.63405344 53.4112629 128.34286851 52.72875977 130.02905273 C51.6076765 132.44357413 51.6076765 132.44357413 51.79125977 135.40405273 C50.65688477 135.54842773 49.52250977 135.69280273 48.35375977 135.84155273 C44.98348776 136.01576751 44.98348776 136.01576751 43.79125977 137.40405273 C43.75033039 139.73702707 43.74884253 142.07110498 43.79125977 144.40405273 C46.43125977 145.06405273 49.07125977 145.72405273 51.79125977 146.40405273 C52.29159818 148.3720505 52.78921332 150.34081414 53.26782227 152.31420898 C53.66469759 153.89874854 54.12076462 155.46860687 54.60375977 157.02905273 C54.87255742 160.43382307 53.47305701 162.51136148 51.79125977 165.40405273 C53.77125977 167.05405273 55.75125977 168.70405273 57.79125977 170.40405273 C58.87407227 169.63061523 58.87407227 169.63061523 59.97875977 168.84155273 C62.79125977 167.40405273 62.79125977 167.40405273 65.16625977 167.52905273 C66.03250977 167.81780273 66.89875977 168.10655273 67.79125977 168.40405273 C68.98750977 168.75467773 70.18375977 169.10530273 71.41625977 169.46655273 C76.05946831 172.13209838 76.38303353 174.35100566 77.79125977 179.40405273 C80.10125977 179.40405273 82.41125977 179.40405273 84.79125977 179.40405273 C85.45125977 176.43405273 86.11125977 173.46405273 86.79125977 170.40405273 C87.69875977 170.28030273 88.60625977 170.15655273 89.54125977 170.02905273 C92.6915356 169.59423828 92.6915356 169.59423828 94.85375977 168.27905273 C97.52995443 167.07044869 99.01770682 167.57198685 101.79125977 168.40405273 C104.10375977 169.46655273 104.10375977 169.46655273 105.79125977 170.40405273 C107.44125977 168.42405273 109.09125977 166.44405273 110.79125977 164.40405273 C110.27563477 163.68217773 109.76000977 162.96030273 109.22875977 162.21655273 C107.49373086 158.82193095 107.70969977 157.98152042 108.79125977 154.40405273 C109.15033048 152.96776986 109.50423224 151.53018778 109.85375977 150.09155273 C110.31782227 148.26624023 110.31782227 148.26624023 110.79125977 146.40405273 C111.92563477 146.25967773 113.06000977 146.11530273 114.22875977 145.96655273 C117.59903178 145.79233796 117.59903178 145.79233796 118.79125977 144.40405273 C118.83218914 142.0710784 118.833677 139.73700049 118.79125977 137.40405273 C117.53313477 137.25967773 116.27500977 137.11530273 114.97875977 136.96655273 C112.17767513 136.28118096 111.1131501 135.91541017 109.55688477 133.44311523 C107.23437369 126.84806021 108.07960921 122.73123737 110.79125977 116.40405273 C109.06270051 114.25837361 109.06270051 114.25837361 106.79125977 112.40405273 C104.31980955 112.56350114 102.69847227 113.4496628 100.47875977 114.54077148 C96.37839984 115.85789291 93.94309211 114.61456622 90.10766602 112.96264648 C86.24210947 110.36170709 85.03843538 106.7598601 83.79125977 102.40405273 C81.81125977 102.40405273 79.83125977 102.40405273 77.79125977 102.40405273 Z " fill="#0C8597" transform="translate(50.208740234375,5.595947265625)"/>
<path d="M0 0 C4.7815264 3.34140508 7.21214268 7.87636437 8.30859375 13.55078125 C8.71442108 19.44107514 6.58925753 24.58188354 3.49609375 29.48828125 C-1.10083388 33.95386809 -5.92294667 35.23663089 -12.16796875 35.66796875 C-17.05938028 35.56196293 -20.76304764 34.31452207 -24.44921875 31.0625 C-28.5977306 26.54322743 -30.37300775 22.42580138 -31.06640625 16.30078125 C-30.48730745 10.60630969 -28.94307614 5.82342444 -24.78515625 1.7421875 C-16.67782122 -4.56519815 -9.11592393 -4.92565144 0 0 Z M-22.50390625 8.73828125 C-24.17228447 12.77751273 -24.38170898 16.30457849 -23.69140625 20.61328125 C-21.60015075 24.72110456 -19.9240555 26.88138991 -15.69140625 28.61328125 C-11.68438036 29.38357828 -8.14329009 29.49141508 -4.5859375 27.33984375 C-2.14320393 25.27485249 -0.13049268 23.4914541 1.30859375 20.61328125 C1.73240099 14.15022083 1.10764395 10.87883982 -3.19140625 5.86328125 C-6.30382272 3.26960086 -9.7891682 3.33393236 -13.6953125 3.3984375 C-17.74516074 3.83433115 -19.93704286 5.72885521 -22.50390625 8.73828125 Z " fill="#0C8893" transform="translate(142.69140625,130.38671875)"/>
<path d="M0 0 C0.69097275 0.00404846 1.3819455 0.00809692 2.09385681 0.01226807 C2.82245407 0.00876343 3.55105133 0.00525879 4.30172729 0.00164795 C6.71625729 -0.00717295 9.13049558 -0.00131907 11.54502869 0.00543213 C13.21889808 0.00408558 14.89276708 0.00214513 16.56663513 -0.00036621 C20.07721169 -0.00331796 23.58768658 0.00098175 27.09825134 0.01031494 C31.60451093 0.02170954 36.1105323 0.01515033 40.61678314 0.00317001 C44.07395736 -0.00404725 47.53107483 -0.00176128 50.98825073 0.0034256 C52.65008573 0.00476247 54.31192584 0.00311308 55.97375488 -0.00153351 C58.29387616 -0.0065966 60.61360836 0.00110815 62.93370056 0.01226807 C63.62467331 0.0082196 64.31564606 0.00417114 65.02755737 0 C69.78524943 0.04252787 69.78524943 0.04252787 72.01377869 2.27105713 C71.68377869 3.92105713 71.35377869 5.57105713 71.01377869 7.27105713 C45.60377869 7.27105713 20.19377869 7.27105713 -5.98622131 7.27105713 C-6.31622131 5.62105713 -6.64622131 3.97105713 -6.98622131 2.27105713 C-4.56455154 -0.15061265 -3.3048024 0.02954084 0 0 Z " fill="#0B6EAE" transform="translate(83.98622131347656,62.72894287109375)"/>
<path d="M0 0 C1.1146312 -0.00637985 2.22926239 -0.0127597 3.37767029 -0.01933289 C5.19791466 -0.02100212 5.19791466 -0.02100212 7.05493164 -0.02270508 C8.91016197 -0.02769768 8.91016197 -0.02769768 10.8028717 -0.03279114 C13.42489244 -0.03786562 16.04691967 -0.0401993 18.66894531 -0.04003906 C21.36465131 -0.03995762 24.06018808 -0.0469229 26.75585938 -0.06054688 C30.62643688 -0.07878979 34.49681556 -0.08377219 38.36743164 -0.08520508 C39.57890366 -0.09239059 40.79037567 -0.09957611 42.03855896 -0.10697937 C43.15634232 -0.10390274 44.27412567 -0.10082611 45.42578125 -0.09765625 C46.41315781 -0.09908127 47.40053436 -0.10050629 48.41783142 -0.10197449 C50.77758789 0.14526367 50.77758789 0.14526367 52.77758789 2.14526367 C52.2418736 5.68097796 52.2418736 5.68097796 50.77758789 7.14526367 C49.03905897 7.24413837 47.2965135 7.27325396 45.55517578 7.2746582 C44.44054459 7.27781036 43.32591339 7.28096252 42.17750549 7.28421021 C40.96400925 7.28218597 39.750513 7.28016174 38.50024414 7.27807617 C36.64501381 7.27951126 36.64501381 7.27951126 34.75230408 7.28097534 C31.45686103 7.28183264 28.16146467 7.27779233 24.86602783 7.2722168 C22.84377541 7.27026723 20.82156644 7.27220753 18.79931641 7.27563477 C14.92877164 7.28179466 11.05829155 7.28106787 7.18774414 7.27807617 C5.97627213 7.2801004 4.76480011 7.28212463 3.51661682 7.28421021 C1.83994179 7.27948196 1.83994179 7.27948196 0.12939453 7.2746582 C-0.85798203 7.27386261 -1.84535858 7.27306702 -2.86265564 7.27224731 C-5.22241211 7.14526367 -5.22241211 7.14526367 -7.22241211 6.14526367 C-6.18758221 0.37978282 -5.86588282 0.02266369 0 0 Z " fill="#0B6DAD" transform="translate(84.222412109375,82.854736328125)"/>
<path d="M0 0 C1.9216523 0.03025772 1.9216523 0.03025772 3.88212585 0.06112671 C5.28055316 0.09342983 6.67897531 0.12595666 8.07739258 0.15869141 C9.50798464 0.18486253 10.93859352 0.21012922 12.36921692 0.23452759 C16.13248991 0.30113974 19.89540895 0.38004054 23.65838623 0.46148682 C27.49908881 0.54244504 31.33999886 0.61180136 35.1809082 0.68212891 C42.71566479 0.82180451 50.25008518 0.97446053 57.78442383 1.13525391 C58.1666115 2.79140048 58.49837485 4.45982415 58.78442383 6.13525391 C57.78442383 7.13525391 57.78442383 7.13525391 55.15855408 7.25550842 C53.98829178 7.25328781 52.81802948 7.2510672 51.61230469 7.2487793 C50.64648216 7.24899834 50.64648216 7.24899834 49.66114807 7.2492218 C47.5238208 7.24852276 45.3865797 7.24073081 43.24926758 7.23291016 C41.77096097 7.23104595 40.29265375 7.22962206 38.81434631 7.22862244 C34.9164358 7.22479749 31.01856234 7.21496742 27.1206665 7.20391846 C23.1459605 7.19370382 19.17124854 7.18912471 15.1965332 7.18408203 C7.39247983 7.17334513 -0.41154299 7.156269 -8.21557617 7.13525391 C-8.54557617 5.48525391 -8.87557617 3.83525391 -9.21557617 2.13525391 C-5.64767062 -0.24334979 -4.2234107 -0.08297467 0 0 Z " fill="#0B6FB1" transform="translate(65.215576171875,42.86474609375)"/>
<path d="M0 0 C0.70125 0.00515625 1.4025 0.0103125 2.125 0.015625 C2.82625 0.01046875 3.5275 0.0053125 4.25 0 C6.125 0.265625 6.125 0.265625 8.125 2.265625 C7.75 4.890625 7.75 4.890625 7.125 7.265625 C3.825 7.265625 0.525 7.265625 -2.875 7.265625 C-3.5 4.890625 -3.5 4.890625 -3.875 2.265625 C-1.875 0.265625 -1.875 0.265625 0 0 Z " fill="#0B6EAE" transform="translate(59.875,62.734375)"/>
<path d="M0 0 C1.91015625 0.23046875 1.91015625 0.23046875 3.91015625 2.23046875 C3.91015625 3.55046875 3.91015625 4.87046875 3.91015625 6.23046875 C1.6812463 7.34492373 0.37960519 7.39527161 -2.08984375 7.41796875 C-3.14171875 7.43923828 -3.14171875 7.43923828 -4.21484375 7.4609375 C-6.08984375 7.23046875 -6.08984375 7.23046875 -8.08984375 5.23046875 C-7.24578654 -0.34030882 -5.3755226 0.10731533 0 0 Z " fill="#0B6FAD" transform="translate(64.08984375,82.76953125)"/>
<path d="M0 0 C-0.33 0.66 -0.66 1.32 -1 2 C-2.5778125 2.2165625 -2.5778125 2.2165625 -4.1875 2.4375 C-8.06830142 3.01007726 -10.60185059 4.10335847 -14 6 C-14.99 6.495 -14.99 6.495 -16 7 C-15.796875 5.14453125 -15.796875 5.14453125 -15 3 C-12.890625 1.69921875 -12.890625 1.69921875 -10.25 0.6875 C-9.38890625 0.34074219 -8.5278125 -0.00601563 -7.640625 -0.36328125 C-4.70631179 -1.07081535 -2.88062099 -0.80305082 0 0 Z " fill="#0D977F" transform="translate(152,173)"/>
<path d="M0 0 C-3.765625 1.953125 -3.765625 1.953125 -5.875 2.375 C-8.99819913 3.29358798 -11.35843666 5.13889855 -14 7 C-13.65557106 4.50289018 -13.15296001 3.17845335 -11.5 1.25 C-7.74442761 -0.62778619 -4.12353394 -0.23789619 0 0 Z " fill="#0B6CAB" transform="translate(31,24)"/>
<path d="M0 0 C0.66 0.33 1.32 0.66 2 1 C2.05391993 2.79133978 2.09275571 4.58313899 2.125 6.375 C2.14820313 7.37273438 2.17140625 8.37046875 2.1953125 9.3984375 C2 12 2 12 0 14 C-0.19456705 12.04235617 -0.38044247 10.08384679 -0.5625 8.125 C-0.66691406 7.03445312 -0.77132813 5.94390625 -0.87890625 4.8203125 C-1 2 -1 2 0 0 Z " fill="#0B70B1" transform="translate(16,32)"/>
</svg>
