<?xml version="1.0" encoding="UTF-8"?>
<svg width="850" height="300" xmlns="http://www.w3.org/2000/svg" font-family="Arial, sans-serif">
  <!-- 定義: 矢印マーカー -->
  <defs>
    <marker id="arrow" markerWidth="10" markerHeight="10" refX="10" refY="5" orient="auto">
      <path d="M0,0 L10,5 L0,10 Z" fill="black" />
    </marker>
  </defs>

  <!-- コンポーネント: User -->
  <rect x="40" y="40" width="80" height="40" fill="#FFFFFF" stroke="#000000" />
  <text x="80" y="60" text-anchor="middle" dominant-baseline="middle" font-size="12">User</text>

  <!-- コンポーネント: Amazon Route 53 -->
  <rect x="180" y="40" width="120" height="40" fill="#F9E79F" stroke="#F1C40F" />
  <text x="240" y="60" text-anchor="middle" dominant-baseline="middle" font-size="12">Amazon Route 53</text>

  <!-- コンポーネント: Amazon CloudFront -->
  <rect x="330" y="40" width="120" height="40" fill="#D1F2EB" stroke="#1ABC9C" />
  <text x="390" y="60" text-anchor="middle" dominant-baseline="middle" font-size="12">Amazon CloudFront</text>

  <!-- コンポーネント: Elastic Load Balancer -->
  <rect x="480" y="40" width="140" height="40" fill="#F5B7B1" stroke="#E74C3C" />
  <text x="550" y="60" text-anchor="middle" dominant-baseline="middle" font-size="12">Elastic Load Balancer</text>

  <!-- コンポーネント: EC2 (Auto Scaling) -->
  <rect x="650" y="40" width="140" height="60" fill="#D6EAF8" stroke="#3498DB" />
  <text x="720" y="70" text-anchor="middle" dominant-baseline="middle" font-size="12">EC2 (Auto Scaling)</text>

  <!-- コンポーネント: Amazon RDS -->
  <rect x="650" y="120" width="140" height="60" fill="#E8DAEF" stroke="#8E44AD" />
  <text x="720" y="150" text-anchor="middle" dominant-baseline="middle" font-size="12">Amazon RDS</text>

  <!-- コンポーネント: Amazon S3 -->
  <rect x="650" y="200" width="140" height="60" fill="#FCF3CF" stroke="#F4D03F" />
  <text x="720" y="230" text-anchor="middle" dominant-baseline="middle" font-size="12">Amazon S3</text>

  <!-- 接続エッジ -->

  <!-- User -> Amazon Route 53 -->
  <line x1="120" y1="60" x2="180" y2="60" stroke="black" stroke-width="2" marker-end="url(#arrow)" />

  <!-- Amazon Route 53 -> Amazon CloudFront -->
  <line x1="300" y1="60" x2="330" y2="60" stroke="black" stroke-width="2" marker-end="url(#arrow)" />

  <!-- Amazon CloudFront -> Elastic Load Balancer -->
  <line x1="450" y1="60" x2="480" y2="60" stroke="black" stroke-width="2" marker-end="url(#arrow)" />

  <!-- Elastic Load Balancer -> EC2 (Auto Scaling) -->
  <line x1="620" y1="60" x2="650" y2="70" stroke="black" stroke-width="2" marker-end="url(#arrow)" />

  <!-- EC2 (Auto Scaling) -> Amazon RDS -->
  <line x1="670" y1="100" x2="720" y2="120" stroke="black" stroke-width="2" marker-end="url(#arrow)" />

  <!-- EC2 (Auto Scaling) -> Amazon S3 -->
  <line x1="770" y1="100" x2="720" y2="200" stroke="black" stroke-width="2" marker-end="url(#arrow)" />
</svg>
